<svg width="400" height="452" viewBox="0 0 400 452" fill="none" xmlns="http://www.w3.org/2000/svg">
<path d="M23.7973 439.371C14.8586 436.567 7.64304 432.086 5.02605 423.551C2.31214 414.694 4.99374 406.992 12.9309 401.176C15.8817 399.016 16.6463 396.922 16.6571 393.796C16.754 375.504 16.3663 357.183 17.4864 338.938C18.7572 318.22 27.4912 299.577 40.77 282.478C42.6655 280.034 43.6778 276.681 43.904 273.678C44.3778 267.558 43.947 261.382 44.0763 255.234C44.3886 240.134 55.7073 230.139 72.8416 230.045C94.9945 229.922 117.158 229.761 139.311 230.168C145.827 230.291 149.951 227.932 152.084 223.366C154.076 219.084 154.711 214.253 155.465 209.611C155.648 208.512 154.238 206.798 153.021 205.993C136.479 194.966 127.012 180.264 123.254 162.445C122.995 161.213 121.337 159.622 119.969 159.252C105.506 155.312 98.6346 147.506 98.5377 134.263C98.4946 128.74 98.6454 123.198 98.9792 117.685C99.0977 115.733 99.4208 113.412 100.692 111.972C105.042 106.98 104.159 101.325 104.289 95.7072C104.569 83.4301 103.621 70.973 105.667 58.9138C110.115 32.6355 137.459 12.4579 167.592 12.1642C194.451 11.899 221.321 12.0127 248.191 12.1074C262.191 12.1642 272.357 20.169 274.102 32.3892C274.501 35.1554 275.653 36.3205 278.83 36.7753C293.703 38.9067 301.834 47.2619 301.941 60.4769C302.049 74.0044 301.963 87.5414 301.974 101.069C301.974 113.63 302.06 126.201 302.006 138.762C301.963 149.031 296.977 155.018 286.132 158.665C284.764 159.129 283.213 160.74 282.965 162C279.067 182.424 267.199 198.12 247.652 209.507C246.198 210.35 245.003 212.756 245.186 214.291C245.552 217.275 246.586 220.335 248.094 223.044C250.689 227.695 254.502 230.291 261.243 230.168C282.868 229.761 304.504 229.988 326.14 230.026C345.192 230.054 357.027 239.944 356.273 256.655C355.67 270.182 358.223 281.976 367.054 293.732C379.18 309.884 383.542 328.792 383.822 348.183C384.048 363.71 383.8 379.245 384.005 394.772C384.026 396.6 385.06 398.997 386.579 400.134C393.988 405.647 397.628 412.477 396.11 420.899C394.527 429.68 388.55 435.534 378.943 438.424C378.146 438.661 377.414 439.049 376.639 439.371H23.7973ZM340.765 395.776V389.855C340.765 346.033 340.765 302.211 340.765 258.388C340.765 247.058 337.136 243.866 324.277 243.866C241.578 243.866 158.89 243.866 76.1909 243.866C63.3645 243.866 59.7782 247.049 59.7674 258.435C59.7674 284.117 59.7674 309.789 59.7674 335.47C59.7674 342.168 57.1612 345.341 51.8519 345.266C46.5856 345.19 44.0978 342.007 44.0763 335.253C44.0547 329.872 44.0763 324.491 44.0763 319.11C44.0763 315.245 44.0763 311.38 44.0763 307.506C35.5899 321.09 32.4021 335.537 32.3375 350.561C32.2729 365.566 32.3267 380.572 32.3267 395.577H44.0763C44.0763 388.321 44.0763 381.415 44.0763 374.499C44.0763 367.404 46.5425 364.022 51.7549 363.861C57.1397 363.7 59.7674 367.196 59.7782 374.556C59.7782 381.576 59.7782 388.605 59.7782 395.766H340.776L340.765 395.776ZM286.261 121.313C273.779 122.952 264.237 119.684 257.625 110.39C257.065 109.604 254.588 109.415 253.155 109.652C242.224 111.442 231.347 111.584 220.47 109.358C201.462 105.464 186.212 96.1429 172.998 83.8659C168.173 79.3851 163.887 78.1725 159.159 79.9724C153.559 82.1039 152.751 86.3478 152.848 91.0749C152.967 97.2229 152.913 103.361 152.881 109.509C152.827 122.488 143.683 128.276 129.855 124.107C124.848 122.601 119.84 121.086 114.218 119.39C114.218 124.439 114.186 128.872 114.218 133.306C114.304 142.428 118.063 145.744 128.401 145.914C135.111 146.019 137.566 148.008 138.094 153.739C140.926 184.441 166.612 206.068 201.591 207.177C235.386 208.247 265.885 184.659 267.834 155.927C268.448 146.89 269.633 145.763 279.95 145.28C283.719 145.1 286.078 143.641 286.196 140.382C286.422 134.12 286.261 127.84 286.261 121.313ZM137.179 111.698C137.179 103.541 137.049 96.0387 137.211 88.5456C137.48 75.4917 147.98 65.9902 162.304 65.4313C172.546 65.0334 179.514 69.7889 186.223 75.8611C204.51 92.4011 226.059 100.842 252.811 95.5177C259.057 94.2768 264.571 96.0766 268.868 100.302C270.247 101.666 271.13 103.418 272.476 104.811C275.05 107.473 278.27 108.695 282.265 107.53C286.056 106.421 286.272 103.684 286.272 100.794C286.25 87.4183 286.326 74.0328 286.229 60.6568C286.186 54.092 283.375 51.3259 276.288 50.3407C265.013 48.7871 260.306 44.5716 258.605 34.5396C257.603 28.5905 254.308 25.957 247.351 25.9475C221.008 25.9096 194.655 25.7581 168.313 26.0328C144.997 26.2791 124.514 40.7824 121.283 61.14C119.075 75.0275 120.238 89.3413 120.174 103.475C120.174 104.763 121.854 106.677 123.297 107.245C127.529 108.941 132.042 110.106 137.179 111.707V111.698ZM199.933 425.531C255.762 425.531 311.591 425.531 367.409 425.531C376.305 425.531 380.699 422.935 380.742 417.678C380.785 412.401 376.402 409.777 367.506 409.777C256.031 409.777 144.545 409.777 33.0698 409.777C31.4975 409.777 29.9251 409.72 28.3636 409.825C23.4204 410.166 19.748 413.5 19.7264 417.583C19.7049 421.628 23.3665 425.057 28.2666 425.474C29.8282 425.607 31.4006 425.531 32.9729 425.531C88.6297 425.531 144.276 425.531 199.933 425.531ZM356.941 306.312V395.681H368.389C366.601 365.898 373.365 335.66 356.941 306.312ZM229.107 217.455C209.711 222.855 190.477 222.239 171.684 215.665C169.972 220.752 168.453 225.223 166.935 229.723H233.749C232.22 225.687 230.809 221.945 229.107 217.446V217.455Z" fill="#77B4D8" stroke="#77B4D8" stroke-miterlimit="10"/>
<path d="M159.676 325.277C159.892 305.27 178.2 289.602 201.063 289.848C223.141 290.085 240.921 306.161 240.835 325.789C240.749 345.559 222.57 361.569 200.223 361.54C177.65 361.512 159.461 345.247 159.676 325.277ZM175.378 325.599C175.346 337.772 186.46 347.672 200.202 347.7C213.944 347.729 225.112 337.877 225.133 325.685C225.166 313.427 214.17 303.688 200.299 303.669C186.417 303.65 175.4 313.341 175.367 325.59L175.378 325.599Z" fill="#77B4D8" stroke="#77B4D8" stroke-miterlimit="10"/>
</svg>
