<svg width="106" height="88" viewBox="0 0 106 88" fill="white" xmlns="http://www.w3.org/2000/svg">
<path d="M77.2917 23.8333H77.3358M30.9167 7.33334H75.0833C87.2796 7.33334 97.1667 15.5414 97.1667 25.6667V62.3333C97.1667 72.4586 87.2796 80.6667 75.0833 80.6667H30.9167C18.7204 80.6667 8.83334 72.4586 8.83334 62.3333V25.6667C8.83334 15.5414 18.7204 7.33334 30.9167 7.33334ZM70.6667 41.69C71.2117 44.7416 70.5839 47.8581 68.8724 50.5964C67.161 53.3347 64.4531 55.5552 61.1339 56.9421C57.8146 58.3291 54.0532 58.8119 50.3844 58.3218C46.7156 57.8317 43.3265 56.3936 40.6989 54.2123C38.0713 52.0309 36.3392 49.2172 35.7488 46.1715C35.1585 43.1257 35.74 40.0029 37.4106 37.2474C39.0813 34.4918 41.756 32.2437 45.0544 30.8229C48.3527 29.4021 52.1068 28.8808 55.7825 29.3333C59.5319 29.7949 63.0031 31.2454 65.6833 33.4705C68.3636 35.6956 70.1107 38.5773 70.6667 41.69Z" stroke="black" stroke-width="2" stroke-linecap="round" stroke-linejoin="round"/>
</svg>
